<?xml version="1.0" encoding="iso-8859-1"?>
<!-- Generator: Adobe Illustrator 18.0.0, SVG Export Plug-In . SVG Version: 6.00 Build 0)  -->
<!DOCTYPE svg PUBLIC "-//W3C//DTD SVG 1.1//EN" "http://www.w3.org/Graphics/SVG/1.1/DTD/svg11.dtd">
<svg version="1.1" id="Capa_1" xmlns="http://www.w3.org/2000/svg" xmlns:xlink="http://www.w3.org/1999/xlink" x="0px" y="0px"
	 viewBox="0 0 164.301 164.301" style="enable-background:new 0 0 164.301 164.301;" xml:space="preserve">
<g>
	<path style="fill:#5F6151;" d="M116.011,122.309c0,0,0.282-0.365,0.874-0.92c0.298-0.273,0.67-0.601,1.145-0.92
		c0.474-0.319,1.042-0.655,1.756-0.854c0.357-0.094,0.753-0.154,1.174-0.122c0.421,0.028,0.861,0.172,1.248,0.418
		c0.777,0.508,1.271,1.336,1.594,2.183c0.087,0.231,0.148,0.408,0.22,0.632c0.066,0.227,0.136,0.455,0.182,0.688
		c0.097,0.468,0.176,0.969,0.051,1.549c-0.072,0.288-0.214,0.611-0.492,0.854c-0.275,0.243-0.631,0.35-0.934,0.369
		c-0.613,0.028-1.119-0.147-1.587-0.357c-0.462-0.223-0.883-0.504-1.265-0.853c-0.189-0.178-0.372-0.37-0.532-0.611
		c-0.08-0.122-0.154-0.257-0.211-0.421l-0.038-0.131l-0.008-0.032l-0.004-0.017l-0.01-0.078l-0.003-0.042l-0.008-0.17l-0.003-0.087
		l0.013-0.124l0.037-0.248c0.024-0.18,0.08-0.269,0.12-0.406c0.092-0.25,0.213-0.471,0.343-0.681
		c0.255-0.425,0.578-0.772,0.904-1.103c0.669-0.643,1.464-1.104,2.283-1.352c0.818-0.257,1.668-0.251,2.38-0.047
		c0.18,0.061,0.347,0.09,0.523,0.175c0.15,0.071,0.295,0.131,0.439,0.207c0.149,0.097,0.298,0.182,0.429,0.285
		c0.12,0.126,0.256,0.21,0.336,0.37c0.103,0.135,0.143,0.305,0.171,0.465c-0.005,0.161-0.02,0.318-0.085,0.441
		c-0.106,0.259-0.275,0.431-0.423,0.576c-0.306,0.284-0.588,0.438-0.776,0.546c-0.191,0.103-0.296,0.148-0.296,0.148
		s0.096-0.064,0.263-0.197c0.166-0.134,0.406-0.344,0.651-0.643c0.231-0.285,0.483-0.771,0.157-1.099
		c-0.05-0.093-0.183-0.152-0.273-0.232c-0.11-0.066-0.238-0.117-0.356-0.181c-0.147-0.052-0.298-0.104-0.452-0.158
		c-0.125-0.049-0.296-0.065-0.445-0.101c-0.622-0.11-1.313-0.048-1.984,0.206c-0.671,0.256-1.318,0.698-1.87,1.263
		c-0.263,0.291-0.526,0.599-0.711,0.943c-0.189,0.341-0.327,0.713-0.334,0.962l0.011,0.169l0.003,0.042
		c-0.004-0.026,0.009,0.074-0.008-0.057l0.002,0.004l0.003,0.008l0.01,0.031c0.018,0.049,0.053,0.114,0.099,0.182
		c0.093,0.136,0.226,0.277,0.37,0.409c0.295,0.263,0.647,0.49,1.011,0.661c0.358,0.174,0.751,0.288,1.055,0.274
		c0.302-0.031,0.391-0.113,0.487-0.413c0.07-0.304,0.046-0.713-0.023-1.108c-0.031-0.201-0.083-0.396-0.129-0.591
		c-0.053-0.193-0.124-0.43-0.182-0.602c-0.26-0.755-0.622-1.44-1.154-1.84c-0.53-0.396-1.209-0.466-1.835-0.357
		c-0.626,0.117-1.196,0.358-1.682,0.605c-0.483,0.253-0.893,0.511-1.222,0.734C116.36,122.006,116.011,122.309,116.011,122.309z"/>
	<path style="fill:#6E705E;" d="M37.902,99.759c6.126,14.412,16.459,36.693,23.494,41.115l11.889-1.955l-4.668-28.386
		c-0.146-0.89,0.315-1.731,1.075-2.124c1.529,11.989,3.841,23.721,7.242,27.896l0.035,0.006l0.32,1.949l5.767-0.948l5.767,0.948
		l0.32-1.949l0.035-0.006c3.401-4.176,5.713-15.907,7.242-27.896c0.76,0.393,1.222,1.234,1.075,2.124l-4.668,28.386l11.889,1.955
		c7.034-4.422,17.367-26.703,23.494-41.115H37.902z"/>
	<path style="fill:#33352A;" d="M91.733,145.245c0,0-2.379-9.546,10.432-7.184c12.812,2.362,15.069,9.015,15.069,9.015l-7.256-2.324
		l2.792,3.807c0,0-11.635,3.852-19.91-1.43"/>
	<path style="fill:#33352A;" d="M71.904,145.245c0,0,2.38-9.546-10.432-7.184s-15.068,9.015-15.068,9.015l7.255-2.324l-2.792,3.807
		c0,0,11.635,3.852,19.91-1.43"/>
	<path style="fill:#9A9B85;" d="M98.572,110.967v-4.015H67.944v5.756l-19.382-15.24c0,0,10.16,49.272,19.511,57.544h12.048v-28.767
		c0-1.121,0.909-2.029,2.029-2.029l0,0c1.121,0,2.029,0.908,2.029,2.029v28.767h12.048c9.352-8.271,19.512-57.544,19.512-57.544
		L98.572,110.967z"/>
	<path style="fill:#BBBCA0;" d="M153.362,77.083c0,25.162-40.486,45.561-70.493,45.561c-28.578,0-70.493-20.398-70.493-45.561
		s31.561-45.559,70.493-45.559C121.801,31.523,153.362,51.921,153.362,77.083z"/>
	<path style="fill:#727462;" d="M156.958,66.671c0,29-33.493,52.51-74.808,52.51S7.342,95.671,7.342,66.671
		S52.299,0.135,82.15,0.135C113.08,0.135,156.958,37.671,156.958,66.671z"/>
	<g>
		<ellipse style="fill:#33352A;" cx="77.834" cy="44.912" rx="2.697" ry="7.013"/>
		<ellipse style="fill:#33352A;" cx="88.861" cy="44.912" rx="2.697" ry="7.013"/>
	</g>
	<path style="fill:#9A9B85;" d="M123.1,8.977c0,0,7.748,22.206,16.89,25.4c9.142,3.194,19.854-24.87,14.895-31.003
		c-4.96-6.134-35.843-2.989-44.339,4.683l12.896,8.295L123.1,8.977z"/>
	<path style="fill:#9A9B85;" d="M42.411,8.842c0,0-7.748,22.205-16.89,25.4C16.38,37.436,5.667,9.372,10.627,3.239
		C15.586-2.895,46.47,0.25,54.966,7.922l-12.876,7.87L42.411,8.842z"/>
	<path style="fill:#BBBCA0;" d="M100.798,86.79c-0.415,0.183-0.832,0.363-1.252,0.547c-2.487,0.967-5.126,1.796-7.878,2.326
		c-2.754,0.513-5.593,0.784-8.438,0.799c-2.845-0.013-5.684-0.286-8.438-0.798c-2.753-0.53-5.392-1.359-7.878-2.326
		c-0.323-0.142-0.644-0.281-0.964-0.42c0.29,0.423,5.892,3.176,8.647,3.732c2.813,0.548,5.719,0.853,8.634,0.89
		c2.915-0.034,5.82-0.342,8.633-0.889C94.675,90.084,100.575,87.194,100.798,86.79z"/>
	<g>
		<path style="fill:#DBDBB9;" d="M45.472,62.468c0,0,0.17,0.333,0.49,0.958c0.16,0.313,0.356,0.697,0.588,1.15
			c0.228,0.455,0.49,0.979,0.841,1.529c0.336,0.559,0.708,1.178,1.113,1.851c0.419,0.664,0.939,1.341,1.456,2.085
			c0.499,0.76,1.153,1.475,1.795,2.262c0.625,0.803,1.385,1.557,2.152,2.363c0.192,0.201,0.387,0.404,0.583,0.609
			c0.204,0.197,0.423,0.384,0.637,0.578c0.431,0.387,0.87,0.781,1.316,1.182c0.435,0.414,0.947,0.752,1.429,1.14
			c0.498,0.368,0.972,0.782,1.507,1.128c1.069,0.692,2.135,1.453,3.324,2.067c0.292,0.162,0.585,0.326,0.879,0.49l0.441,0.249
			l0.459,0.221c0.615,0.293,1.236,0.588,1.862,0.887c2.549,1.087,5.27,2.023,8.123,2.614c2.854,0.576,5.803,0.885,8.76,0.899
			c2.956-0.017,5.906-0.323,8.759-0.9c2.853-0.591,5.573-1.527,8.123-2.614c0.626-0.298,1.247-0.594,1.862-0.887l0.459-0.22
			l0.441-0.251c0.294-0.164,0.588-0.328,0.879-0.49c1.189-0.613,2.254-1.375,3.323-2.066c0.536-0.346,1.01-0.76,1.508-1.128
			c0.482-0.389,0.994-0.726,1.429-1.14c0.446-0.4,0.885-0.795,1.316-1.182c0.214-0.194,0.433-0.381,0.637-0.578
			c0.196-0.205,0.391-0.408,0.583-0.609c0.768-0.807,1.528-1.56,2.152-2.363c0.643-0.787,1.297-1.502,1.796-2.261
			c0.518-0.745,1.037-1.421,1.456-2.086c0.406-0.674,0.779-1.293,1.115-1.853c0.352-0.552,0.612-1.073,0.84-1.527
			c0.231-0.452,0.429-0.837,0.588-1.149c0.319-0.624,0.49-0.958,0.49-0.958s-0.152,0.342-0.437,0.983
			c-0.143,0.32-0.318,0.717-0.525,1.182c-0.104,0.232-0.215,0.483-0.334,0.75c-0.121,0.266-0.284,0.531-0.438,0.821
			c-0.315,0.575-0.665,1.214-1.045,1.908c-0.395,0.686-0.89,1.387-1.382,2.16c-0.474,0.787-1.103,1.535-1.722,2.358
			c-0.601,0.84-1.36,1.614-2.117,2.455c-0.19,0.209-0.383,0.42-0.577,0.634c-0.203,0.205-0.419,0.4-0.632,0.604
			c-0.428,0.404-0.865,0.815-1.309,1.234c-0.433,0.433-0.944,0.788-1.425,1.196c-0.497,0.387-0.972,0.821-1.508,1.188
			c-1.071,0.732-2.142,1.536-3.34,2.193c-0.594,0.335-1.166,0.729-1.804,1.013c-0.626,0.305-1.259,0.612-1.897,0.923
			c-2.599,1.134-5.377,2.114-8.294,2.744c-2.917,0.614-5.938,0.957-8.97,0.994c-3.032-0.039-6.053-0.38-8.97-0.995
			c-2.917-0.63-5.695-1.61-8.294-2.744c-0.638-0.311-1.271-0.618-1.897-0.923c-0.637-0.283-1.208-0.68-1.803-1.014
			c-1.198-0.657-2.269-1.461-3.34-2.193c-0.536-0.366-1.012-0.8-1.508-1.188c-0.481-0.407-0.993-0.763-1.425-1.195
			c-0.444-0.419-0.88-0.83-1.309-1.234c-0.212-0.203-0.43-0.398-0.632-0.604c-0.195-0.213-0.387-0.425-0.578-0.634
			c-0.756-0.841-1.516-1.614-2.116-2.455c-0.619-0.823-1.249-1.57-1.722-2.358c-0.493-0.773-0.987-1.474-1.382-2.16
			c-0.381-0.695-0.731-1.334-1.047-1.91c-0.153-0.29-0.316-0.556-0.438-0.821c-0.119-0.267-0.23-0.516-0.333-0.748
			c-0.207-0.465-0.383-0.86-0.525-1.181C45.624,62.81,45.472,62.468,45.472,62.468z"/>
		<path style="fill:#DBDBB9;" d="M51.49,61.366c0,0-0.186-0.01-0.499,0.002c-0.158,0.012-0.345,0.02-0.559,0.046
			c-0.213,0.015-0.451,0.067-0.707,0.1c-0.254,0.063-0.528,0.106-0.811,0.192c-0.286,0.068-0.574,0.182-0.875,0.281
			c-0.301,0.102-0.596,0.255-0.902,0.38c-0.292,0.167-0.609,0.286-0.894,0.476c-0.291,0.179-0.594,0.335-0.865,0.538
			c-0.271,0.202-0.571,0.356-0.816,0.572c-0.25,0.207-0.514,0.384-0.748,0.572c-0.224,0.201-0.446,0.383-0.654,0.551
			c-0.421,0.329-0.732,0.651-0.986,0.848c-0.246,0.204-0.395,0.316-0.395,0.316s0.077-0.166,0.228-0.45
			c0.077-0.141,0.168-0.314,0.284-0.506c0.11-0.197,0.241-0.414,0.415-0.628c0.165-0.223,0.345-0.463,0.548-0.708
			c0.208-0.239,0.446-0.479,0.697-0.722c0.242-0.252,0.533-0.472,0.823-0.699c0.281-0.241,0.616-0.42,0.935-0.621
			c0.318-0.202,0.678-0.338,1.013-0.497c0.35-0.131,0.701-0.246,1.046-0.329c0.346-0.086,0.685-0.143,1.011-0.164
			c0.322-0.047,0.634-0.021,0.914-0.017c0.566,0.038,1.024,0.152,1.331,0.259C51.331,61.27,51.49,61.366,51.49,61.366z"/>
		<path style="fill:#DBDBB9;" d="M114.8,61.366c0,0,0.158-0.096,0.466-0.209c0.307-0.106,0.765-0.221,1.331-0.259
			c0.28-0.004,0.592-0.029,0.914,0.017c0.326,0.021,0.665,0.078,1.011,0.164c0.346,0.083,0.696,0.198,1.046,0.329
			c0.335,0.159,0.695,0.295,1.013,0.497c0.318,0.201,0.654,0.38,0.936,0.621c0.29,0.228,0.581,0.447,0.823,0.699
			c0.25,0.242,0.488,0.482,0.697,0.722c0.203,0.245,0.383,0.485,0.548,0.708c0.173,0.214,0.305,0.431,0.414,0.628
			c0.116,0.191,0.207,0.365,0.284,0.506c0.151,0.284,0.227,0.45,0.227,0.45s-0.15-0.112-0.395-0.316
			c-0.253-0.196-0.564-0.519-0.986-0.848c-0.207-0.168-0.43-0.35-0.654-0.551c-0.234-0.188-0.498-0.365-0.748-0.572
			c-0.245-0.216-0.544-0.37-0.815-0.572c-0.271-0.203-0.575-0.359-0.865-0.538c-0.285-0.189-0.603-0.309-0.895-0.476
			c-0.307-0.125-0.601-0.278-0.902-0.38c-0.301-0.1-0.59-0.213-0.875-0.281c-0.283-0.086-0.557-0.13-0.811-0.192
			c-0.255-0.032-0.493-0.085-0.706-0.1c-0.214-0.026-0.401-0.034-0.559-0.046C114.986,61.356,114.8,61.366,114.8,61.366z"/>
	</g>
	<path style="fill:#33352A;" d="M80.649,159.632c0,0,2.379-9.546-10.432-7.185c-12.812,2.362-15.069,9.015-15.069,9.015l7.256-2.323
		l-2.792,3.806c0,0,11.635,3.852,19.91-1.429"/>
	<path style="fill:#33352A;" d="M83.211,159.632c0,0-2.38-9.546,10.432-7.185c12.812,2.362,15.069,9.015,15.069,9.015l-7.256-2.323
		l2.791,3.806c0,0-11.635,3.852-19.909-1.429"/>
	<g>
		<path style="fill:#DBDBB9;" d="M82.212,31.344c0,0-0.143-0.131-0.402-0.344c-0.257-0.214-0.644-0.497-1.126-0.794
			c-0.483-0.295-1.072-0.594-1.734-0.79c-0.661-0.188-1.398-0.274-2.107-0.135c-0.356,0.054-0.701,0.172-1.029,0.313
			c-0.322,0.154-0.638,0.32-0.918,0.524c-0.286,0.197-0.543,0.416-0.785,0.628c-0.23,0.227-0.455,0.435-0.641,0.649
			c-0.382,0.42-0.692,0.788-0.887,1.061c-0.202,0.269-0.324,0.419-0.324,0.419s0.081-0.174,0.236-0.476
			c0.076-0.152,0.174-0.333,0.299-0.533c0.12-0.204,0.257-0.436,0.436-0.667c0.165-0.243,0.373-0.485,0.597-0.739
			c0.235-0.243,0.487-0.501,0.787-0.726c0.294-0.23,0.623-0.443,0.983-0.615c0.362-0.164,0.749-0.304,1.152-0.37
			c0.402-0.077,0.814-0.078,1.211-0.043c0.4,0.028,0.779,0.142,1.135,0.258c0.71,0.252,1.303,0.624,1.764,0.986
			c0.466,0.36,0.795,0.724,1.023,0.973C82.105,31.182,82.212,31.344,82.212,31.344z"/>
	</g>
	<g>
		<path style="fill:#DBDBB9;" d="M96.082,33.605c0,0-0.089-0.172-0.261-0.46c-0.17-0.288-0.438-0.686-0.791-1.129
			c-0.355-0.44-0.807-0.922-1.364-1.331c-0.558-0.401-1.222-0.733-1.936-0.841c-0.354-0.07-0.717-0.076-1.074-0.055
			c-0.356,0.036-0.709,0.086-1.042,0.183c-0.335,0.089-0.652,0.207-0.951,0.325c-0.293,0.134-0.576,0.253-0.824,0.392
			c-0.502,0.266-0.919,0.507-1.194,0.698c-0.281,0.184-0.448,0.284-0.448,0.284s0.136-0.137,0.384-0.368
			c0.122-0.117,0.276-0.254,0.462-0.399c0.182-0.152,0.389-0.323,0.636-0.481c0.238-0.173,0.515-0.33,0.812-0.492
			c0.304-0.149,0.628-0.306,0.987-0.415c0.355-0.118,0.736-0.206,1.133-0.246c0.397-0.031,0.808-0.031,1.21,0.042
			c0.404,0.064,0.792,0.203,1.154,0.37c0.367,0.163,0.684,0.399,0.98,0.628c0.583,0.478,1.014,1.028,1.325,1.526
			c0.316,0.497,0.503,0.95,0.633,1.262C96.037,33.417,96.082,33.605,96.082,33.605z"/>
	</g>
	<ellipse style="fill:#DBDBB9;" cx="83.589" cy="72.695" rx="24.277" ry="15.914"/>
	<path style="fill:#9A9B85;" d="M73.339,71.311c0,2.801-2.697,5.071-2.697,5.071s-2.698-2.271-2.698-5.071
		c0-2.801,1.207-5.07,2.698-5.07C72.131,66.24,73.339,68.51,73.339,71.311z"/>
	<path style="fill:#9A9B85;" d="M98.572,71.311c0,2.801-2.697,5.071-2.697,5.071s-2.698-2.271-2.698-5.071
		c0-2.801,1.207-5.07,2.698-5.07C97.364,66.24,98.572,68.51,98.572,71.311z"/>
	<circle style="fill:#F18424;" cx="23.891" cy="65.058" r="8.277"/>
	<circle style="fill:#F18424;" cx="139.155" cy="65.058" r="8.277"/>
</g>
<g>
</g>
<g>
</g>
<g>
</g>
<g>
</g>
<g>
</g>
<g>
</g>
<g>
</g>
<g>
</g>
<g>
</g>
<g>
</g>
<g>
</g>
<g>
</g>
<g>
</g>
<g>
</g>
<g>
</g>
</svg>
